<svg width="40" height="49" viewBox="0 0 40 49" fill="none" xmlns="http://www.w3.org/2000/svg">
<path d="M37.1886 9.28625C30.2402 9.28625 25.9205 8.92977 24.0674 8.67921C23.8339 8.64765 23.7853 8.34807 23.9918 8.23484L36.329 1.47133C36.5568 1.34642 36.4681 1.00006 36.2082 1.00006H23.3783" stroke="#EEEEEE" stroke-width="1.39887" stroke-linecap="round"/>
<path d="M15.0919 16.0658C8.14348 16.0658 3.82386 15.7093 1.97068 15.4588C1.73725 15.4272 1.68859 15.1276 1.89514 15.0144L14.2323 8.25087C14.4601 8.12596 14.3714 7.7796 14.1116 7.7796H1.28159" stroke="#EEEEEE" stroke-width="1.39887" stroke-linecap="round"/>
<path d="M38.6951 47.4529C31.7466 47.4529 27.427 47.0965 25.5738 46.8459C25.3404 46.8143 25.2917 46.5148 25.4983 46.4015L37.8354 39.638C38.0633 39.5131 37.9746 39.1667 37.7147 39.1667H24.8847" stroke="#EEEEEE" stroke-width="1.39887" stroke-linecap="round"/>
</svg>
