<svg width="414" height="355" viewBox="0 0 414 355" fill="none" xmlns="http://www.w3.org/2000/svg">
<path d="M108.738 198.224L176.736 194.935C176.736 194.935 236.552 170.951 264.394 219.02C292.236 267.089 212.634 327.411 212.634 327.411L184.645 321.477L200.716 261.198C200.716 261.198 132.02 278.236 108.738 198.224Z" fill="#00ADB5"/>
<path d="M108.738 198.224L108.704 197.526C108.49 197.536 108.293 197.644 108.169 197.818C108.044 197.992 108.007 198.214 108.066 198.42L108.738 198.224ZM176.736 194.935L176.77 195.634L176.888 195.628L176.997 195.585L176.736 194.935ZM212.634 327.411L212.489 328.095L212.802 328.162L213.056 327.969L212.634 327.411ZM184.645 321.477L183.969 321.297L183.779 322.008L184.5 322.161L184.645 321.477ZM200.716 261.198L201.392 261.378L201.697 260.234L200.548 260.519L200.716 261.198ZM108.772 198.923L176.77 195.634L176.703 194.237L108.704 197.526L108.772 198.923ZM212.779 326.727L184.79 320.793L184.5 322.161L212.489 328.095L212.779 326.727ZM185.32 321.657L201.392 261.378L200.04 261.018L183.969 321.297L185.32 321.657ZM200.716 261.198C200.548 260.519 200.548 260.519 200.548 260.519C200.547 260.519 200.547 260.519 200.546 260.52C200.545 260.52 200.542 260.521 200.538 260.521C200.531 260.523 200.52 260.526 200.504 260.53C200.473 260.537 200.426 260.548 200.363 260.562C200.237 260.591 200.047 260.633 199.797 260.685C199.298 260.788 198.559 260.93 197.608 261.083C195.705 261.389 192.956 261.739 189.583 261.911C182.834 262.256 173.599 261.888 163.65 259.043C143.796 253.367 120.983 237.803 109.41 198.029L108.066 198.42C119.775 238.657 142.951 254.58 163.265 260.388C173.4 263.285 182.795 263.658 189.654 263.309C193.085 263.134 195.885 262.777 197.83 262.464C198.803 262.308 199.562 262.162 200.081 262.055C200.34 262.001 200.539 261.957 200.674 261.926C200.741 261.911 200.793 261.899 200.828 261.89C200.846 261.886 200.859 261.883 200.869 261.881C200.874 261.88 200.877 261.879 200.88 261.878C200.881 261.878 200.882 261.877 200.883 261.877C200.884 261.877 200.885 261.877 200.716 261.198ZM176.736 194.935C176.997 195.585 176.997 195.585 176.997 195.585C176.997 195.584 176.998 195.584 176.998 195.584C177 195.583 177.002 195.582 177.005 195.581C177.012 195.579 177.022 195.575 177.036 195.569C177.063 195.558 177.105 195.542 177.16 195.521C177.271 195.478 177.438 195.415 177.657 195.334C178.095 195.173 178.744 194.941 179.582 194.662C181.257 194.105 183.684 193.362 186.686 192.618C192.691 191.13 200.979 189.645 210.124 189.651C228.402 189.664 250.033 195.622 263.789 219.371L264.999 218.669C250.913 194.349 228.715 188.265 210.125 188.252C200.835 188.246 192.429 189.753 186.349 191.26C183.308 192.014 180.845 192.768 179.14 193.335C178.288 193.619 177.624 193.855 177.173 194.022C176.947 194.105 176.774 194.17 176.657 194.215C176.599 194.238 176.554 194.255 176.524 194.267C176.509 194.273 176.497 194.278 176.489 194.281C176.485 194.283 176.482 194.284 176.48 194.285C176.479 194.285 176.478 194.286 176.477 194.286C176.477 194.286 176.476 194.286 176.736 194.935ZM263.789 219.371C270.632 231.186 270.888 243.764 267.38 256.043C263.867 268.338 256.585 280.303 248.403 290.812C240.225 301.315 231.175 310.328 224.166 316.718C220.662 319.912 217.67 322.448 215.556 324.185C214.499 325.053 213.661 325.722 213.088 326.172C212.802 326.398 212.582 326.569 212.434 326.683C212.36 326.74 212.304 326.783 212.267 326.812C212.248 326.826 212.234 326.837 212.225 326.844C212.22 326.847 212.217 326.85 212.215 326.851C212.213 326.852 212.213 326.853 212.212 326.853C212.212 326.854 212.211 326.854 212.634 327.411C213.056 327.969 213.057 327.968 213.058 327.968C213.058 327.967 213.059 327.966 213.061 327.965C213.063 327.963 213.067 327.961 213.072 327.957C213.082 327.949 213.097 327.938 213.116 327.923C213.155 327.893 213.213 327.849 213.289 327.79C213.44 327.673 213.664 327.5 213.954 327.272C214.533 326.815 215.379 326.141 216.444 325.266C218.574 323.516 221.584 320.964 225.108 317.752C232.154 311.329 241.264 302.257 249.507 291.671C257.745 281.091 265.143 268.963 268.725 256.427C272.311 243.876 272.077 230.889 264.999 218.669L263.789 219.371Z" fill="black"/>
<path d="M213.916 326.464L185.951 317.596L175.173 341.367C175.173 341.367 199.116 349.631 215.202 350.224L207.366 341.407L213.916 326.464Z" fill="#EEEEEE" stroke="black" stroke-width="1.39887" stroke-linejoin="round"/>
<path d="M105.975 200.589L195.716 199.83C195.716 199.83 258.829 212.866 255.496 268.316C252.164 323.766 152.489 330.099 152.489 330.099L132.431 309.695L181.952 262.266C181.952 262.266 114.448 277.534 105.975 200.589Z" fill="#00ADB5" stroke="black" stroke-width="1.39887"/>
<path d="M154.081 330.018L135.664 307.181L113.551 321.048C113.551 321.048 128.948 341.159 142.032 350.537L140.368 338.858L154.081 330.018Z" fill="#EEEEEE" stroke="black" stroke-width="1.39887" stroke-linejoin="round"/>
<path fill-rule="evenodd" clip-rule="evenodd" d="M114.375 107.666C115.665 105.875 116.676 103.851 117.303 101.568C122.039 84.3385 107.387 73.1573 95.4629 70.2565C83.5383 67.3556 43.9312 98.665 87.2807 120.186C87.3977 120.18 87.5165 120.172 87.6371 120.165C94.5831 125.661 96.8051 132.915 99.4712 141.618C100.559 145.168 101.72 148.959 103.306 152.97L123.128 137.315C123.57 125.646 120.413 116.331 114.375 107.666Z" fill="#F5B9AB"/>
<path d="M117.303 101.568L117.978 101.754L117.978 101.754L117.303 101.568ZM114.375 107.666L113.807 107.257C113.634 107.498 113.631 107.823 113.801 108.066L114.375 107.666ZM95.4629 70.2565L95.6282 69.5769L95.4629 70.2565ZM87.2807 120.186L86.9697 120.813C87.078 120.866 87.1984 120.891 87.3191 120.884L87.2807 120.186ZM87.6371 120.165L88.0711 119.616C87.9352 119.508 87.7641 119.455 87.5911 119.467L87.6371 120.165ZM99.4712 141.618L100.14 141.413L99.4712 141.618ZM103.306 152.97L102.655 153.227C102.737 153.433 102.911 153.588 103.124 153.646C103.338 153.703 103.566 153.656 103.739 153.519L103.306 152.97ZM123.128 137.315L123.562 137.864C123.722 137.737 123.819 137.546 123.827 137.341L123.128 137.315ZM116.629 101.383C116.025 103.58 115.051 105.529 113.807 107.257L114.943 108.075C116.278 106.22 117.327 104.121 117.978 101.754L116.629 101.383ZM95.2976 70.9361C101.142 72.3578 107.649 75.8117 112.1 80.9947C116.53 86.1531 118.927 93.0204 116.629 101.383L117.978 101.754C120.415 92.8865 117.854 85.5482 113.161 80.0833C108.489 74.6431 101.708 71.0559 95.6282 69.5769L95.2976 70.9361ZM87.5918 119.56C76.8403 114.222 71.3609 108.34 69.2499 102.654C67.1458 96.9865 68.3352 91.3674 71.2469 86.4177C74.1641 81.4586 78.7865 77.2215 83.4209 74.4055C85.7356 72.9991 88.0352 71.9582 90.1045 71.3581C92.1869 70.7541 93.9745 70.6142 95.2976 70.9361L95.6282 69.5769C93.9702 69.1735 91.9116 69.3775 89.7148 70.0146C87.505 70.6555 85.0926 71.7529 82.6945 73.21C77.9035 76.1212 73.0976 80.5127 70.0412 85.7084C66.9792 90.9136 65.6496 96.9757 67.9385 103.141C70.2207 109.288 76.0464 115.39 86.9697 120.813L87.5918 119.56ZM87.5911 119.467C87.4731 119.474 87.3568 119.481 87.2424 119.488L87.3191 120.884C87.4387 120.878 87.56 120.871 87.6831 120.862L87.5911 119.467ZM100.14 141.413C97.4829 132.739 95.2129 125.267 88.0711 119.616L87.2031 120.713C93.9533 126.055 96.1274 133.09 98.8024 141.823L100.14 141.413ZM103.956 152.713C102.382 148.731 101.228 144.965 100.14 141.413L98.8024 141.823C99.8892 145.37 101.058 149.187 102.655 153.227L103.956 152.713ZM122.695 136.766L102.872 152.421L103.739 153.519L123.562 137.864L122.695 136.766ZM113.801 108.066C119.759 116.615 122.865 125.782 122.429 137.289L123.827 137.341C124.275 125.509 121.068 116.046 114.949 107.266L113.801 108.066Z" fill="black"/>
<path d="M69.2294 101.666C69.052 108.418 80.1789 117.235 84.6748 118.277C55.1064 120.956 50.4302 84.8374 60.3866 85.2364C54.7117 74.5648 63.7319 63.3081 77.2179 66.4296C86.0103 37.4441 105.263 63.5661 101.156 72.3201C97.0494 81.0741 86.0635 82.8625 83.1616 87.9095C80.2597 92.9566 86.2456 107.513 80.0368 101.396C73.8281 95.2786 69.4511 93.2251 69.2294 101.666Z" fill="#00ADB5" stroke="black" stroke-width="1.39887"/>
<path d="M197.864 196.774C210.62 167.384 169.652 137.401 160.615 131.243C159.454 130.452 158.275 129.756 157.046 129.074C133.529 116.013 100.434 114.304 88.3872 138.356C67.3292 180.398 119.829 224.289 139.22 252.247L197.864 196.774Z" fill="#EEEEEE"/>
<path d="M160.615 131.243L161.009 130.665L160.615 131.243ZM197.864 196.774L198.345 197.282L198.449 197.184L198.506 197.052L197.864 196.774ZM139.22 252.247L138.645 252.645C138.761 252.813 138.945 252.921 139.147 252.942C139.35 252.963 139.552 252.895 139.7 252.755L139.22 252.247ZM88.3872 138.356L87.7619 138.042L88.3872 138.356ZM157.046 129.074L157.386 128.463L157.046 129.074ZM160.221 131.821C164.721 134.888 177.157 143.878 186.871 155.74C196.609 167.632 203.435 182.182 197.222 196.495L198.506 197.052C205.049 181.976 197.769 166.84 187.953 154.853C178.112 142.837 165.546 133.757 161.009 130.665L160.221 131.821ZM197.383 196.266L138.739 251.739L139.7 252.755L198.345 197.282L197.383 196.266ZM139.794 251.848C134.923 244.824 127.976 236.804 120.671 228.119C113.352 219.416 105.654 210.023 99.2203 200.2C86.3368 180.527 78.6596 159.338 89.0126 138.669L87.7619 138.042C77.0568 159.415 85.1006 181.193 98.0501 200.966C104.533 210.866 112.28 220.315 119.6 229.019C126.934 237.74 133.821 245.69 138.645 252.645L139.794 251.848ZM156.707 129.685C157.925 130.362 159.085 131.046 160.221 131.821L161.009 130.665C159.824 129.857 158.624 129.15 157.386 128.463L156.707 129.685ZM157.386 128.463C145.53 121.878 131.242 118.142 118.364 119.1C105.468 120.06 93.9236 125.74 87.7619 138.042L89.0126 138.669C94.8981 126.919 105.924 121.428 118.468 120.495C131.028 119.56 145.046 123.209 156.707 129.685L157.386 128.463Z" fill="black"/>
<path d="M213.68 181.568L193.339 157.621L163.777 180.647C159.091 146.9 121.546 119.692 107.019 123.459C67.9654 133.588 112.243 221.239 140.491 233.922C168.739 246.606 213.68 181.568 213.68 181.568Z" fill="#EEEEEE" stroke="black" stroke-width="1.39887"/>
<path d="M195.103 155.683L192.521 158.259L213.19 182.272L217.409 178.075C224.484 171.036 223.345 159.283 215.049 153.735C208.786 149.547 200.437 150.362 195.103 155.683Z" fill="#F5B9AB" stroke="black" stroke-width="1.39887" stroke-linejoin="round"/>
<path fill-rule="evenodd" clip-rule="evenodd" d="M91.9355 249.665C91.6057 249.579 91.2737 249.822 91.2743 250.163L91.4331 341.339H73.1881C72.9108 341.339 72.6859 341.564 72.6859 341.841L72.6859 352.941C72.6859 353.218 72.9108 353.443 73.1881 353.443H125.094C125.372 353.443 125.596 353.218 125.596 352.941V341.841C125.596 341.564 125.372 341.339 125.094 341.339H105.279V249.688C105.279 249.389 105.019 249.156 104.722 249.19C103.727 249.304 102.794 249.421 101.91 249.532C97.8482 250.044 94.855 250.421 91.9355 249.665Z" fill="#00ADB5"/>
<path d="M91.2743 250.163L90.5748 250.164V250.164L91.2743 250.163ZM91.9355 249.665L92.1108 248.988V248.988L91.9355 249.665ZM91.4331 341.339V342.039H92.1338L92.1326 341.338L91.4331 341.339ZM72.6859 341.841H73.3853H72.6859ZM72.6859 352.941H71.9865H72.6859ZM105.279 341.339H104.579V342.039H105.279V341.339ZM104.722 249.19L104.642 248.495L104.642 248.495L104.722 249.19ZM101.91 249.532L101.823 248.838L101.91 249.532ZM91.9737 250.161C91.9738 250.23 91.9378 250.286 91.899 250.315C91.8621 250.342 91.8109 250.355 91.7601 250.342L92.1108 248.988C91.366 248.795 90.5734 249.336 90.5748 250.164L91.9737 250.161ZM92.1326 341.338L91.9737 250.161L90.5748 250.164L90.7337 341.34L92.1326 341.338ZM73.1881 342.039H91.4331V340.64H73.1881V342.039ZM73.3853 341.841C73.3853 341.95 73.297 342.039 73.1881 342.039V340.64C72.5245 340.64 71.9865 341.178 71.9865 341.841H73.3853ZM73.3853 352.941L73.3853 341.841H71.9865L71.9865 352.941H73.3853ZM73.1881 352.743C73.297 352.743 73.3853 352.832 73.3853 352.941H71.9865C71.9865 353.604 72.5245 354.142 73.1881 354.142V352.743ZM125.094 352.743H73.1881V354.142H125.094V352.743ZM124.897 352.941C124.897 352.832 124.985 352.743 125.094 352.743V354.142C125.758 354.142 126.296 353.604 126.296 352.941H124.897ZM124.897 341.841V352.941H126.296V341.841H124.897ZM125.094 342.039C124.985 342.039 124.897 341.95 124.897 341.841H126.296C126.296 341.178 125.758 340.64 125.094 340.64V342.039ZM105.279 342.039H125.094V340.64H105.279V342.039ZM104.579 249.688V341.339H105.978V249.688H104.579ZM104.801 249.885C104.682 249.898 104.579 249.805 104.579 249.688H105.978C105.978 248.972 105.356 248.413 104.642 248.495L104.801 249.885ZM101.998 250.226C102.881 250.115 103.811 249.998 104.801 249.885L104.642 248.495C103.643 248.609 102.706 248.727 101.823 248.838L101.998 250.226ZM91.7601 250.342C94.8346 251.138 97.9712 250.733 101.998 250.226L101.823 248.838C97.7253 249.354 94.8754 249.704 92.1108 248.988L91.7601 250.342Z" fill="black"/>
<path d="M70.3887 158.789C82.3219 187.232 59.9097 197.653 60.1709 216.561C60.5323 242.727 103.206 267.975 129.912 213.303" stroke="black" stroke-width="1.39887"/>
<rect x="22.3704" y="103.916" width="32.5071" height="105.129" rx="15.8191" transform="rotate(-22.7603 22.3704 103.916)" fill="#00ADB5" stroke="black" stroke-width="1.39887"/>
<rect x="316.189" y="211.309" width="15.5619" height="142.132" rx="0.502194" fill="#00ADB5" stroke="black" stroke-width="1.39887"/>
<rect x="199.858" y="210.664" width="52.107" height="112.515" rx="24.5617" transform="rotate(88.7489 199.858 210.664)" fill="#00ADB5" stroke="black" stroke-width="1.39887"/>
<rect x="411.967" y="184.052" width="32.5071" height="176.822" rx="15.8191" transform="rotate(88.7489 411.967 184.052)" fill="#00ADB5" stroke="black" stroke-width="1.39887"/>
<rect x="386.425" y="98.9033" width="82.9969" height="15.5619" rx="2.00878" transform="rotate(105 386.425 98.9033)" fill="#00ADB5" stroke="black" stroke-width="1.39887"/>
<rect x="285.245" y="170.956" width="82.9969" height="15.5619" rx="2.00878" fill="#EEEEEE" stroke="black" stroke-width="1.39887"/>
</svg>
