<svg width="258" height="349" viewBox="0 0 258 349" fill="none" xmlns="http://www.w3.org/2000/svg">
<rect x="120.196" y="255.056" width="45.0309" height="92.9437" rx="3.51536" fill="#00ADB5" stroke="black" stroke-width="1.64486" stroke-linejoin="round"/>
<rect x="2.39484" y="281.895" width="45.0309" height="66.1053" rx="3.51536" fill="#EEEEEE" stroke="black" stroke-width="1.64486" stroke-linejoin="round"/>
<rect x="211.338" y="152.026" width="45.0309" height="195.974" rx="3.51536" fill="#00ADB5" stroke="black" stroke-width="1.64486" stroke-linejoin="round"/>
<path d="M62.1686 128.169L108.468 128.169C108.468 128.169 101.089 195.602 91.0462 206.658C81.0037 217.713 28.4448 248.034 28.4448 248.034L10.7444 237.17L43.7417 185.203C43.7417 185.203 40.1129 164.938 62.1686 128.169Z" fill="#00ADB5" stroke="black" stroke-width="1.39887"/>
<path d="M29.1933 247.426L10.7444 237.173L1.40734 247.226C1.40734 247.226 17.1476 256.349 28.1292 259.925L23.4782 253.79L29.1933 247.426Z" fill="#EEEEEE" stroke="black" stroke-width="1.39887" stroke-linejoin="round"/>
<path d="M62.366 127.186L112.953 127.119C112.953 127.119 141.075 151.849 144.618 166.358C148.161 180.868 144.121 233.524 144.121 233.524L123.675 242.564L102.567 186.947C102.567 186.947 80.4977 166.041 62.366 127.186Z" fill="#00ADB5"/>
<path d="M62.366 127.186L62.365 126.487C62.1262 126.487 61.904 126.609 61.7758 126.811C61.6476 127.012 61.6311 127.265 61.7321 127.482L62.366 127.186ZM112.953 127.119L113.415 126.594L113.217 126.42L112.952 126.42L112.953 127.119ZM144.121 233.524L144.403 234.164L144.786 233.995L144.818 233.578L144.121 233.524ZM123.675 242.564L123.021 242.812L123.283 243.502L123.958 243.204L123.675 242.564ZM102.567 186.947L103.221 186.698L103.164 186.549L103.048 186.439L102.567 186.947ZM62.3669 127.885L112.954 127.819L112.952 126.42L62.365 126.487L62.3669 127.885ZM143.838 232.885L123.392 241.924L123.958 243.204L144.403 234.164L143.838 232.885ZM124.329 242.316L103.221 186.698L101.913 187.195L123.021 242.812L124.329 242.316ZM102.567 186.947C103.048 186.439 103.048 186.439 103.048 186.439C103.048 186.439 103.047 186.439 103.047 186.438C103.047 186.438 103.046 186.437 103.045 186.436C103.042 186.434 103.039 186.43 103.034 186.426C103.024 186.416 103.008 186.401 102.988 186.382C102.947 186.342 102.885 186.283 102.804 186.203C102.641 186.043 102.397 185.802 102.081 185.481C101.448 184.84 100.521 183.877 99.3508 182.6C97.0106 180.047 93.6982 176.234 89.8194 171.209C82.0615 161.16 72.0402 146.263 62.9998 126.89L61.7321 127.482C70.8234 146.964 80.9026 161.948 88.7121 172.064C92.617 177.123 95.9551 180.965 98.3194 183.546C99.5016 184.836 100.44 185.81 101.085 186.464C101.407 186.79 101.656 187.037 101.825 187.202C101.91 187.285 101.974 187.347 102.018 187.389C102.04 187.41 102.056 187.426 102.068 187.437C102.073 187.443 102.078 187.447 102.081 187.45C102.082 187.451 102.083 187.452 102.084 187.453C102.085 187.453 102.085 187.454 102.085 187.454C102.085 187.454 102.086 187.454 102.567 186.947ZM112.953 127.119C112.492 127.645 112.492 127.645 112.492 127.645C112.492 127.645 112.492 127.645 112.493 127.646C112.493 127.646 112.495 127.647 112.496 127.649C112.499 127.652 112.504 127.656 112.511 127.662C112.524 127.673 112.544 127.691 112.57 127.714C112.623 127.761 112.702 127.831 112.804 127.922C113.01 128.106 113.312 128.377 113.698 128.728C114.471 129.43 115.58 130.449 116.922 131.718C119.607 134.257 123.222 137.791 126.946 141.775C130.672 145.762 134.497 150.189 137.608 154.514C140.729 158.855 143.086 163.032 143.938 166.524L145.297 166.193C144.379 162.43 141.891 158.075 138.743 153.698C135.585 149.306 131.716 144.83 127.968 140.82C124.219 136.809 120.582 133.254 117.883 130.702C116.534 129.426 115.418 128.4 114.639 127.693C114.249 127.339 113.944 127.065 113.736 126.879C113.632 126.786 113.552 126.715 113.498 126.667C113.471 126.643 113.45 126.625 113.437 126.613C113.43 126.607 113.424 126.602 113.421 126.599C113.419 126.597 113.418 126.596 113.417 126.595C113.416 126.595 113.416 126.595 113.416 126.595C113.415 126.594 113.415 126.594 112.953 127.119ZM143.938 166.524C144.804 170.067 145.216 176.007 145.336 182.986C145.455 189.945 145.282 197.873 144.999 205.356C144.716 212.838 144.322 219.867 143.998 225.026C143.837 227.606 143.693 229.718 143.59 231.184C143.538 231.918 143.496 232.49 143.468 232.878C143.453 233.072 143.442 233.221 143.435 233.32C143.431 233.37 143.428 233.408 143.426 233.433C143.425 233.446 143.424 233.455 143.424 233.462C143.424 233.465 143.423 233.467 143.423 233.469C143.423 233.469 143.423 233.47 143.423 233.47C143.423 233.471 143.423 233.471 144.121 233.524C144.818 233.578 144.818 233.578 144.818 233.577C144.818 233.577 144.818 233.576 144.818 233.575C144.818 233.574 144.818 233.571 144.819 233.568C144.819 233.562 144.82 233.552 144.821 233.539C144.823 233.514 144.826 233.476 144.829 233.425C144.837 233.325 144.848 233.176 144.863 232.981C144.891 232.591 144.933 232.018 144.985 231.283C145.089 229.813 145.233 227.698 145.395 225.114C145.718 219.947 146.113 212.905 146.397 205.409C146.681 197.914 146.854 189.957 146.734 182.962C146.615 175.988 146.204 169.904 145.297 166.193L143.938 166.524Z" fill="black"/>
<path fill-rule="evenodd" clip-rule="evenodd" d="M106.736 44.6844C107.886 44.2646 108.982 43.6511 109.982 42.7992C117.53 36.3687 114.293 26.6669 109.725 21.616C105.158 16.565 77.2137 18.5798 90.3958 41.9787C90.4513 42.0122 90.5079 42.0458 90.5655 42.0797C92.0392 46.7692 90.7963 50.7916 89.305 55.6178C88.6968 57.5862 88.0472 59.6884 87.5238 62.0241L101.505 61.0223C105.347 55.8044 106.804 50.5446 106.736 44.6844Z" fill="#F5B9AB"/>
<path d="M109.982 42.7992L110.515 43.4252L110.515 43.4252L109.982 42.7992ZM106.736 44.6844L106.454 43.9117C106.126 44.0314 105.909 44.345 105.913 44.694L106.736 44.6844ZM109.725 21.616L110.335 21.0643L109.725 21.616ZM90.3958 41.9787L89.6793 42.3824C89.749 42.5063 89.8497 42.6099 89.9715 42.6832L90.3958 41.9787ZM90.5655 42.0797L91.3501 41.8331C91.289 41.6386 91.1578 41.4738 90.9821 41.3706L90.5655 42.0797ZM89.305 55.6178L88.5192 55.375L88.5192 55.375L89.305 55.6178ZM87.5238 62.0241L86.7213 61.8443C86.6644 62.098 86.7309 62.3637 86.9006 62.5608C87.0703 62.7578 87.3232 62.863 87.5826 62.8444L87.5238 62.0241ZM101.505 61.0223L101.563 61.8427C101.803 61.8255 102.024 61.7039 102.167 61.51L101.505 61.0223ZM109.449 42.1731C108.528 42.9577 107.518 43.5233 106.454 43.9117L107.017 45.457C108.254 45.0059 109.436 44.3445 110.515 43.4252L109.449 42.1731ZM109.115 22.1676C111.304 24.5873 113.166 28.1201 113.58 31.7827C113.99 35.4073 112.988 39.1575 109.449 42.1731L110.515 43.4252C114.524 40.0104 115.678 35.6944 115.214 31.5978C114.755 27.5392 112.715 23.6956 110.335 21.0643L109.115 22.1676ZM91.1123 41.5751C87.8722 35.8236 87.2429 31.5316 88.0111 28.412C88.7738 25.3146 90.9592 23.196 93.7563 21.872C96.565 20.5425 99.9341 20.0474 102.883 20.1977C104.353 20.2727 105.694 20.5071 106.788 20.8631C107.897 21.224 108.68 21.6866 109.115 22.1676L110.335 21.0643C109.629 20.2827 108.539 19.7033 107.297 19.299C106.04 18.8898 104.552 18.6358 102.966 18.555C99.8025 18.3937 96.153 18.9176 93.0525 20.3853C89.9404 21.8584 87.3259 24.3152 86.4139 28.0187C85.5074 31.6999 86.3284 36.4344 89.6793 42.3824L91.1123 41.5751ZM90.9821 41.3706C90.927 41.3382 90.873 41.3061 90.8201 41.2742L89.9715 42.6832C90.0296 42.7183 90.0887 42.7534 90.1488 42.7887L90.9821 41.3706ZM90.0908 55.8606C91.5714 51.0688 92.9118 46.8027 91.3501 41.8331L89.7809 42.3262C91.1666 46.7357 90.0212 50.5143 88.5192 55.375L90.0908 55.8606ZM88.3263 62.2039C88.8416 59.9045 89.4817 57.8318 90.0908 55.8606L88.5192 55.375C87.9118 57.3407 87.2528 59.4723 86.7213 61.8443L88.3263 62.2039ZM101.446 60.202L87.465 61.2038L87.5826 62.8444L101.563 61.8427L101.446 60.202ZM105.913 44.694C105.98 50.3886 104.571 55.4709 100.842 60.5347L102.167 61.51C106.123 56.1378 107.628 50.7005 107.558 44.6747L105.913 44.694Z" fill="black"/>
<path d="M87.8875 27.8491C85.6998 30.8928 88.0562 38.4102 89.7948 40.2904C75.3887 32.297 84.509 14.2618 88.954 17.5506C89.6783 10.8828 97.3294 8.53019 102.545 14.1694C115.622 3.60926 116.31 21.6035 111.694 24.34C107.079 27.0765 101.479 24.4705 98.5726 25.8816C95.6665 27.2927 93.8732 35.8405 92.9318 31.0963C91.9904 26.3522 90.6222 24.0444 87.8875 27.8491Z" fill="#00ADB5" stroke="black" stroke-width="1.64486"/>
<path d="M114.642 128.265C129.721 118.236 123.428 83.5813 121.283 73.7283C120.897 71.9556 120.325 70.255 119.632 68.5786C113.932 54.8001 99.8708 43.7023 86.4035 50.1027C57.7177 63.7358 61.9823 107.223 62.2531 128.591L114.642 128.265Z" fill="#EEEEEE" stroke="black" stroke-width="1.64486" stroke-linejoin="round"/>
<path d="M159.997 81.3722L147.895 66.603L107.116 95.1333L93.9362 68.6039L76.8699 95.1331C76.8699 95.1331 95.3585 123.848 104.75 123.014C121.866 121.493 159.997 81.3722 159.997 81.3722Z" fill="#EEEEEE"/>
<path d="M94.8392 70.5397L107.001 94.3189L147.894 66.6035L159.997 81.3727C159.997 81.3727 124.051 121.245 103.045 123.111C96.4339 123.699 77.1728 94.8459 77.1728 94.8459" stroke="black" stroke-width="1.64486"/>
<path d="M151.918 63.938L147.125 67.0145L159.158 82.2598L162.942 79.1937C166.969 75.9317 167.607 70.0309 164.37 65.9837C161.356 62.2139 155.981 61.3308 151.918 63.938Z" fill="#F5B9AB" stroke="black" stroke-width="1.64486" stroke-linejoin="round"/>
<path d="M144.369 231.606L123.675 242.395L127.235 255.877L154.866 238.861L146.736 239.965L144.369 231.606Z" fill="#EEEEEE" stroke="black" stroke-width="1.39887" stroke-linejoin="round"/>
</svg>
