<svg width="163" height="130" viewBox="0 0 163 130" fill="none" xmlns="http://www.w3.org/2000/svg">
<path d="M2.72367 27.274C9.49114 15.0548 15.8881 -1.32746 32.6123 3.15379C40.5593 5.28317 46.7344 17.1295 46.2487 24.6615C45.8457 30.9093 47.5811 38.8003 41.1332 42.6902C36.0686 45.7456 29.6683 45.3116 25.6745 40.5815C14.3328 27.1489 35.2904 17.7371 45.6826 19.7922C59.8673 22.5972 76.3042 57.9365 63.9494 69.0979C53.3564 78.6676 46.3867 63.9822 53.7858 55.2718C64.1942 43.0187 73.7683 42.63 85.8718 55.7353C95.3223 65.9679 92.4801 84.0285 84.8549 93.5294C83.2712 95.5027 77.3438 109.315 75.9126 107.93C61.7901 94.2659 86.81 74.1341 100.713 76.9965C116.687 80.2853 132.813 83.7953 143.371 96.4387C149.049 103.238 159.529 127.563 157.515 118.936C154.995 108.141 152.576 93.3273 157.05 82.5753C158.382 79.3759 162.386 69.0566 159.005 79.0729C155.523 89.3885 152.216 98.3938 150.799 108.637C150.484 110.916 153.446 114.15 154.457 116.083C155.313 117.721 148.649 115.617 147.853 115.534C140.977 114.82 134.693 117.468 128.802 120.759C123.544 123.697 117.526 129.21 113.561 127.25" stroke="#00ADB5" stroke-opacity="0.2" stroke-width="4" stroke-linecap="round" stroke-linejoin="round"/>
</svg>
